<svg id="Lab_Report" xmlns="http://www.w3.org/2000/svg" xmlns:xlink="http://www.w3.org/1999/xlink" width="80" height="80" viewBox="0 0 80 80">
  <defs>
    <linearGradient id="linear-gradient" x1="0.5" x2="0.5" y2="1" gradientUnits="objectBoundingBox">
      <stop offset="0" stop-color="#2a57d7"/>
      <stop offset="1" stop-color="#00e4d0"/>
    </linearGradient>
  </defs>
  <g id="Group_7" data-name="Group 7">
    <path id="Path_66" data-name="Path 66" d="M23.654,30.8h8.632a1.254,1.254,0,0,0,1.251-1.251A1.182,1.182,0,0,0,32.286,28.3H23.654A1.254,1.254,0,0,0,22.4,29.551,1.178,1.178,0,0,0,23.654,30.8Z" transform="translate(3.094 4.574)" fill="url(#linear-gradient)"/>
    <path id="Path_67" data-name="Path 67" d="M23.654,54.5h3.878a1.251,1.251,0,1,0,0-2.5H23.654A1.182,1.182,0,0,0,22.4,53.251C22.278,54,22.9,54.5,23.654,54.5Z" transform="translate(3.095 10.498)" fill="url(#linear-gradient)"/>
    <path id="Path_68" data-name="Path 68" d="M32.283,56.7H23.651a1.251,1.251,0,1,0,0,2.5h8.632a1.251,1.251,0,1,0,0-2.5Z" transform="translate(3.097 11.666)" fill="url(#linear-gradient)"/>
    <path id="Path_69" data-name="Path 69" d="M23.654,40.3h8.632a1.254,1.254,0,0,0,1.251-1.251A1.182,1.182,0,0,0,32.286,37.8H23.654a1.251,1.251,0,0,0,0,2.5Z" transform="translate(3.094 6.949)" fill="url(#linear-gradient)"/>
    <path id="Path_70" data-name="Path 70" d="M23.651,45h3.878a1.254,1.254,0,0,0,1.251-1.251A1.345,1.345,0,0,0,27.529,42.5H23.651a1.251,1.251,0,1,0,0,2.5Z" transform="translate(3.098 8.124)" fill="url(#linear-gradient)"/>
    <path id="Path_71" data-name="Path 71" d="M23.654,11.8H45.546A1.254,1.254,0,0,0,46.8,10.551,1.182,1.182,0,0,0,45.546,9.3H23.654A1.254,1.254,0,0,0,22.4,10.551,1.178,1.178,0,0,0,23.654,11.8Z" transform="translate(3.088 -0.168)" fill="url(#linear-gradient)"/>
    <path id="Path_72" data-name="Path 72" d="M23.651,16.5H35.16a1.254,1.254,0,0,0,1.251-1.251A1.345,1.345,0,0,0,35.16,14H23.651a1.251,1.251,0,0,0,0,2.5Z" transform="translate(3.096 1)" fill="url(#linear-gradient)"/>
    <path id="Path_73" data-name="Path 73" d="M18.258,8H10.127A2.008,2.008,0,0,0,8,10v7.506a2.108,2.108,0,0,0,2.127,2.127h8.131a2.108,2.108,0,0,0,2.127-2.127V10a2.17,2.17,0,0,0-2.127-2Zm-1.376,5.129L14.13,15.756a.982.982,0,0,1-1.376,0l-1.376-1.5a.973.973,0,0,1,1.376-1.376l.751.751,2.127-2a.982.982,0,0,1,1.376,0A1.286,1.286,0,0,1,16.882,13.129Z" transform="translate(-0.494 -0.494)" fill="url(#linear-gradient)"/>
    <path id="Path_74" data-name="Path 74" d="M18.258,22.2H10.127A2.108,2.108,0,0,0,8,24.327v7.381a2.108,2.108,0,0,0,2.127,2.127h8.131a2.108,2.108,0,0,0,2.127-2.127V24.327A2.286,2.286,0,0,0,18.258,22.2Zm-1.376,5.254L14.13,30.081a.982.982,0,0,1-1.376,0l-1.376-1.5A.973.973,0,1,1,12.754,27.2l.751.876,2.127-2a.982.982,0,0,1,1.376,0A1.138,1.138,0,0,1,16.882,27.454Z" transform="translate(-0.494 3.047)" fill="url(#linear-gradient)"/>
    <path id="Path_75" data-name="Path 75" d="M18.258,36.5H10.127A2.108,2.108,0,0,0,8,38.627v7.381a2.108,2.108,0,0,0,2.127,2.127h8.131a2.108,2.108,0,0,0,2.127-2.127V38.627A2.19,2.19,0,0,0,18.258,36.5Zm-1.376,5.129L14.13,44.256a.982.982,0,0,1-1.376,0l-1.376-1.5a.973.973,0,0,1,1.376-1.376l.751.876,2.127-2a.934.934,0,1,1,1.251,1.376Z" transform="translate(-0.494 6.619)" fill="url(#linear-gradient)"/>
    <path id="Path_76" data-name="Path 76" d="M75.25,74.125H72.875V74a16.956,16.956,0,0,0-.75-3.625A17.736,17.736,0,0,0,82,54.5,17.358,17.358,0,0,0,66.625,37.125,6.411,6.411,0,0,0,64.25,33.5L65.625,31a3.356,3.356,0,0,0-1.375-4.5l-1.125-.625L64,24.25l.25.125A3.607,3.607,0,1,0,67.625,18L63,15.5V10.25A8.242,8.242,0,0,0,54.75,2H10.25A8.242,8.242,0,0,0,2,10.25V73.875A8.216,8.216,0,0,0,10.25,82h67.5a.986.986,0,0,0,1-1V77.5a3.469,3.469,0,0,0-3.5-3.375ZM63.375,29.75c-.125.125-1.5,2.875-1.375,2.625a4.687,4.687,0,0,0-1.375-.125A6.195,6.195,0,0,0,56.375,43L54,47.5a1.008,1.008,0,0,1-1.125.375l-9.375-5a1.008,1.008,0,0,1-.375-1.125c.125-.125,9.625-17.875,9.5-17.75a1.008,1.008,0,0,1,1.125-.375,84.055,84.055,0,0,0,9.375,5,.814.814,0,0,1,.25,1.125Zm7,43.875H48.125A11.328,11.328,0,0,1,59.25,63.75,11.212,11.212,0,0,1,70.375,73.625ZM60.5,42.125A3.628,3.628,0,0,1,56.875,38.5,3.737,3.737,0,0,1,60.5,34.75a3.8,3.8,0,0,1,3.375,2.125A3.726,3.726,0,0,1,60.5,42.125ZM77.375,54.5a12.929,12.929,0,0,1-7.5,11.75,13.769,13.769,0,0,0-6.75-4.5V44.125A6.288,6.288,0,0,0,66,41.625,12.976,12.976,0,0,1,77.375,54.5ZM4.625,73.75V10.25A5.6,5.6,0,0,1,10.25,4.625H54.875A5.6,5.6,0,0,1,60.5,10.25v4L60,14a3.546,3.546,0,0,0-4.875,1.5,3.618,3.618,0,0,0,1.5,4.875l.25.125L56,22l-1.125-.625a3.251,3.251,0,0,0-4.5,1.375L47,28.875H28.75a1.253,1.253,0,0,0-1.25,1.25,1.181,1.181,0,0,0,1.25,1.25h17l-4.875,9a3.435,3.435,0,0,0-.25,2.5,3.661,3.661,0,0,0,1.625,2l.375.25-1.5,2.625a2.2,2.2,0,0,0,.875,3l4.625,2.5a2.234,2.234,0,0,0,3-.875l1.5-2.625L51.5,50a3.46,3.46,0,0,0,1.625.375,3.366,3.366,0,0,0,3-1.75L58.5,44.25a2.942,2.942,0,0,0,1,.25,3.461,3.461,0,0,0,1.125.125V61.25c-.375,0-.875-.125-1.25-.125A13.758,13.758,0,0,0,47,69a3.866,3.866,0,0,1-3-3.625V62.75h5.75a2.625,2.625,0,0,0,0-5.25H36.375a2.625,2.625,0,1,0,0,5.25H41.5v2.625a6.187,6.187,0,0,0,4.625,6,7.849,7.849,0,0,0-.375,2.375v.125h-2.5a3.361,3.361,0,0,0-3.375,3.375V79.5H10.25a5.709,5.709,0,0,1-5.625-5.75Z" transform="translate(-2 -2)" fill="url(#linear-gradient)"/>
    <path id="Path_77" data-name="Path 77" d="M49.129,29.8A1.732,1.732,0,0,0,47.5,31.176a1.718,1.718,0,0,0,3.378.625A1.707,1.707,0,0,0,49.129,29.8Z" transform="translate(9.37 4.949)" fill="url(#linear-gradient)"/>
    <path id="Path_78" data-name="Path 78" d="M48.377,54.2A2.375,2.375,0,0,0,46,56.577a2.3,2.3,0,0,0,2.377,2.377,2.377,2.377,0,1,0,0-4.754Z" transform="translate(8.997 11.039)" fill="url(#linear-gradient)"/>
    <path id="Path_79" data-name="Path 79" d="M18.258,50.8H10.127A2.108,2.108,0,0,0,8,52.927v7.381a2.008,2.008,0,0,0,2.127,2h8.131a2.108,2.108,0,0,0,2.127-2.127V52.8A2.17,2.17,0,0,0,18.258,50.8Z" transform="translate(-0.494 10.185)" fill="url(#linear-gradient)"/>
  </g>
</svg>
