<svg id="service_fee" data-name="service fee" xmlns="http://www.w3.org/2000/svg" xmlns:xlink="http://www.w3.org/1999/xlink" width="80" height="80" viewBox="0 0 80 80">
  <defs>
    <linearGradient id="linear-gradient" x1="0.5" x2="0.5" y2="1" gradientUnits="objectBoundingBox">
      <stop offset="0" stop-color="#2a57d7"/>
      <stop offset="1" stop-color="#00e4d0"/>
    </linearGradient>
  </defs>
  <g id="Group_9" data-name="Group 9">
    <path id="Path_99" data-name="Path 99" d="M207.807,182a25.807,25.807,0,1,0,25.807,25.807A25.836,25.836,0,0,0,207.807,182Zm0,23.461a7.021,7.021,0,0,1,2.346,13.644v5.124h-4.692V219.1a7.027,7.027,0,0,1-4.692-6.606h4.692a2.346,2.346,0,1,0,2.346-2.346,7.021,7.021,0,0,1-2.346-13.644v-5.124h4.692v5.124a7.027,7.027,0,0,1,4.692,6.606h-4.692a2.346,2.346,0,1,0-2.346,2.346Z" transform="translate(-153.613 -153.613)" fill="url(#linear-gradient)"/>
    <path id="Path_100" data-name="Path 100" d="M26.119,28.465c14.47,0,25.807-6.184,25.807-14.076S40.59,0,26.119,0,0,6.5,0,14.389,11.649,28.465,26.119,28.465Z" fill="url(#linear-gradient)"/>
    <path id="Path_101" data-name="Path 101" d="M0,337.559v3.823c0,7.893,11.649,14.076,26.119,14.076.821,0,1.616-.076,2.424-.115a30.3,30.3,0,0,1-3.932-9.326C14.147,345.728,5.062,342.513,0,337.559Z" transform="translate(0 -284.842)" fill="url(#linear-gradient)"/>
    <path id="Path_102" data-name="Path 102" d="M23.886,265.339c-.054-.738-.113-1.475-.113-2.227a30.367,30.367,0,0,1,.867-7.093c-10.477-.284-19.574-3.5-24.64-8.46v3.823C0,258.856,10.52,264.729,23.886,265.339Z" transform="translate(0 -208.889)" fill="url(#linear-gradient)"/>
    <path id="Path_103" data-name="Path 103" d="M26.119,175.458h.007a30.6,30.6,0,0,1,6.59-9.825,52.362,52.362,0,0,1-6.6.441c-11.139,0-20.813-3.322-26.119-8.515v3.823C0,169.274,11.649,175.458,26.119,175.458Z" transform="translate(0 -132.947)" fill="url(#linear-gradient)"/>
  </g>
</svg>
