<svg xmlns="http://www.w3.org/2000/svg" xmlns:xlink="http://www.w3.org/1999/xlink" width="74.667" height="80" viewBox="0 0 74.667 80">
  <defs>
    <linearGradient id="linear-gradient" x1="0.5" x2="0.5" y2="1" gradientUnits="objectBoundingBox">
      <stop offset="0" stop-color="#2a57d7"/>
      <stop offset="1" stop-color="#00e4d0"/>
    </linearGradient>
  </defs>
  <g id="layer1" transform="translate(-1.058 -280.6)">
    <path id="path33493" d="M11.726,280.6a4.016,4.016,0,0,0-4,4v2.667a4.025,4.025,0,0,0,4,4.007H41.055a4.032,4.032,0,0,0,4-4.007V284.6a4.023,4.023,0,0,0-4-4Zm0,13.333v2.69A12.268,12.268,0,0,0,1.058,308.6v47.929a4.058,4.058,0,0,0,4,4.065H37.55a11.92,11.92,0,0,1-2.453-16H3.724v-32H49.057v26.662h2.666V308.6a12.258,12.258,0,0,0-10.669-11.978v-2.69Zm12,24a1.333,1.333,0,0,0-1.328,1.328V324.6H17.059a1.333,1.333,0,0,0-1.338,1.339v5.333a1.333,1.333,0,0,0,1.338,1.328H22.4v5.336a1.333,1.333,0,0,0,1.328,1.328h5.336a1.333,1.333,0,0,0,1.338-1.328V332.59H35.72a1.333,1.333,0,0,0,1.338-1.328v-5.333a1.333,1.333,0,0,0-1.338-1.339H30.4v-5.336a1.333,1.333,0,0,0-1.338-1.328ZM45.06,341.92a9.335,9.335,0,1,0,0,18.671h9.33V341.92Zm12,.005V360.6h9.33a9.335,9.335,0,1,0,0-18.671Z" fill="url(#linear-gradient)"/>
  </g>
</svg>
