<svg xmlns="http://www.w3.org/2000/svg" xmlns:xlink="http://www.w3.org/1999/xlink" width="82.893" height="79.998" viewBox="0 0 82.893 79.998">
  <defs>
    <linearGradient id="linear-gradient" x1="0.5" x2="0.5" y2="1" gradientUnits="objectBoundingBox">
      <stop offset="0" stop-color="#2a57d7"/>
      <stop offset="1" stop-color="#00e4d0"/>
    </linearGradient>
  </defs>
  <path id="_002-return-box" data-name="002-return-box" d="M44.7,17.109l10.816,6.245L20.45,43.6v15a1.6,1.6,0,0,0,.816,1.414l8.134,4.7A.816.816,0,0,0,30.62,64V49.472L65.688,29.226,76.5,35.47a3.189,3.189,0,0,1,1.637,2.83V57.065a35.437,35.437,0,0,0-9.147-1.714V54.093A3.51,3.51,0,0,0,63.228,51.4L50.777,61.822A4.345,4.345,0,0,0,51,68.658l12.409,9.1A3.51,3.51,0,0,0,69,74.928V73.543a15.4,15.4,0,0,1,7.238,2.622,10.841,10.841,0,0,1,1.153.961,3.344,3.344,0,0,1-.876.723L44.7,96.21a3.189,3.189,0,0,1-3.265,0L9.634,77.849A3.189,3.189,0,0,1,8,75.021V38.3a3.189,3.189,0,0,1,1.633-2.828l31.8-18.361a3.189,3.189,0,0,1,3.265,0Zm21.614,53.6c17.463,0,22.412,16.679,8.068,24.176a.167.167,0,0,0,.117.311C98.331,89.334,96.664,57.94,66.313,57.94V54.093a.836.836,0,0,0-1.372-.641L52.493,63.873a1.671,1.671,0,0,0,.084,2.629l12.409,9.1a.836.836,0,0,0,1.33-.674Z" transform="translate(-8 -16.661)" fill-rule="evenodd" fill="url(#linear-gradient)"/>
</svg>
