<svg xmlns="http://www.w3.org/2000/svg" xmlns:xlink="http://www.w3.org/1999/xlink" width="140.801" height="80.002" viewBox="0 0 140.801 80.002">
  <defs>
    <linearGradient id="linear-gradient" x1="0.5" x2="0.5" y2="1" gradientUnits="objectBoundingBox">
      <stop offset="0" stop-color="#2a57d7"/>
      <stop offset="1" stop-color="#00e4d0"/>
    </linearGradient>
  </defs>
  <g id="Artworks" transform="translate(47.993 31)">
    <path id="Path_116" data-name="Path 116" d="M60.39,19.249,31.182.2a1.324,1.324,0,0,0-1.4,0L.579,19.249a1.276,1.276,0,1,0,1.4,2.133l3.1-2.029V57.144a3.821,3.821,0,0,0,3.81,3.81H52.065a3.821,3.821,0,0,0,3.81-3.81V19.353c.522.254,3.276,2.375,3.81,2.235a1.28,1.28,0,0,0,.706-2.337Zm-38.8-1.47H39.366a1.27,1.27,0,1,1,0,2.539H21.588a1.27,1.27,0,1,1,0-2.539Zm0,6.35H39.366a1.27,1.27,0,1,1,0,2.539H21.588a1.27,1.27,0,1,1,0-2.539ZM44.445,58.414H41.906V50.795H31.747v7.619h-2.54V50.795H19.048v7.619h-2.54V35.557H44.446ZM36.826,48.255h-12.7V39.366A1.27,1.27,0,0,1,25.4,38.1H35.557a1.27,1.27,0,0,1,1.27,1.27Z" transform="translate(31.859 -31)" fill="url(#linear-gradient)"/>
    <path id="Path_116-2" data-name="Path 116" d="M60.39,19.249,31.182.2a1.324,1.324,0,0,0-1.4,0L.579,19.249a1.276,1.276,0,1,0,1.4,2.133l3.1-2.029V57.144a3.821,3.821,0,0,0,3.81,3.81H52.065a3.821,3.821,0,0,0,3.81-3.81V19.353c.522.254,3.276,2.375,3.81,2.235a1.28,1.28,0,0,0,.706-2.337Zm-38.8-1.47H39.366a1.27,1.27,0,1,1,0,2.539H21.588a1.27,1.27,0,1,1,0-2.539Zm0,6.35H39.366a1.27,1.27,0,1,1,0,2.539H21.588a1.27,1.27,0,1,1,0-2.539ZM44.445,58.414H41.906V50.795H31.747v7.619h-2.54V50.795H19.048v7.619h-2.54V35.557H44.446ZM36.826,48.255h-12.7V39.366A1.27,1.27,0,0,1,25.4,38.1H35.557a1.27,1.27,0,0,1,1.27,1.27Z" transform="translate(-47.996 -31)" fill="url(#linear-gradient)"/>
    <path id="Path_116-3" data-name="Path 116" d="M60.39,19.249,31.182.2a1.324,1.324,0,0,0-1.4,0L.579,19.249a1.276,1.276,0,1,0,1.4,2.133l3.1-2.029V57.144a3.821,3.821,0,0,0,3.81,3.81H52.065a3.821,3.821,0,0,0,3.81-3.81V19.353c.522.254,3.276,2.375,3.81,2.235a1.28,1.28,0,0,0,.706-2.337Zm-38.8-1.47H39.366a1.27,1.27,0,1,1,0,2.539H21.588a1.27,1.27,0,1,1,0-2.539Zm0,6.35H39.366a1.27,1.27,0,1,1,0,2.539H21.588a1.27,1.27,0,1,1,0-2.539ZM44.445,58.414H41.906V50.795H31.747v7.619h-2.54V50.795H19.048v7.619h-2.54V35.557H44.446ZM36.826,48.255h-12.7V39.366A1.27,1.27,0,0,1,25.4,38.1H35.557a1.27,1.27,0,0,1,1.27,1.27Z" transform="translate(-8.237 -11.952)" fill="url(#linear-gradient)"/>
  </g>
</svg>
