<svg xmlns="http://www.w3.org/2000/svg" xmlns:xlink="http://www.w3.org/1999/xlink" width="112.264" height="80" viewBox="0 0 112.264 80">
  <defs>
    <linearGradient id="linear-gradient" x1="0.5" x2="0.5" y2="1" gradientUnits="objectBoundingBox">
      <stop offset="0" stop-color="#2a57d7"/>
      <stop offset="1" stop-color="#00e4d0"/>
    </linearGradient>
  </defs>
  <g id="bed-type" transform="translate(-1586.123 -1567.822)">
    <path id="Subtraction_2" data-name="Subtraction 2" d="M1385.5,1529a6.5,6.5,0,1,1,6.5-6.5A6.508,6.508,0,0,1,1385.5,1529Zm35.133-.077h-8.312a6.66,6.66,0,0,1,0-13.321h8.312v13.32Zm0-33.3h-8.312a6.66,6.66,0,0,1,0-13.321h8.314v13.32ZM1385.5,1495a6.019,6.019,0,1,1,6.5-6A6.272,6.272,0,0,1,1385.5,1495Zm80.1-32.678h-53.284a6.661,6.661,0,0,1,0-13.322H1465.6a6.661,6.661,0,0,1,0,13.322Zm-80.1-.321a6.5,6.5,0,1,1,6.5-6.5A6.508,6.508,0,0,1,1385.5,1462Z" transform="translate(207.124 118.822)" fill="url(#linear-gradient)"/>
    <g id="bed" transform="translate(1632.756 1534.4)">
      <path id="Path_116" data-name="Path 116" d="M0,357.648v4.119a1.923,1.923,0,1,0,3.846,0v-2.2H61.787v2.2a1.923,1.923,0,0,0,3.846,0V351.333H0Z" transform="translate(0 -250.269)" fill="url(#linear-gradient)"/>
      <path id="Path_117" data-name="Path 117" d="M58.561,224.933H7.072A7.08,7.08,0,0,0,0,232v5.286H65.632V232A7.08,7.08,0,0,0,58.561,224.933Z" transform="translate(0 -140.071)" fill="url(#linear-gradient)"/>
      <path id="Path_118" data-name="Path 118" d="M177.826,158.533a3.23,3.23,0,0,0-3.226,3.226v1.44h20.869v-1.44a3.23,3.23,0,0,0-3.226-3.226Z" transform="translate(-152.218 -82.183)" fill="url(#linear-gradient)"/>
      <path id="Path_119" data-name="Path 119" d="M74.566,79.576A7.08,7.08,0,0,1,81.637,72.5H96.054a7.08,7.08,0,0,1,7.072,7.072v1.44h10.3V71.338a7.08,7.08,0,0,0-7.072-7.072H71.34a7.08,7.08,0,0,0-7.072,7.072v9.678h10.3Z" transform="translate(-56.03)" fill="url(#linear-gradient)"/>
    </g>
  </g>
</svg>
