<svg xmlns="http://www.w3.org/2000/svg" xmlns:xlink="http://www.w3.org/1999/xlink" width="78.895" height="80.003" viewBox="0 0 78.895 80.003">
  <defs>
    <linearGradient id="linear-gradient" x1="0.5" x2="0.5" y2="1" gradientUnits="objectBoundingBox">
      <stop offset="0" stop-color="#2a57d7"/>
      <stop offset="1" stop-color="#00e4d0"/>
    </linearGradient>
  </defs>
  <g id="daily-income" transform="translate(-3.546)">
    <path id="Path_1" data-name="Path 1" d="M198.462,39.426a19.713,19.713,0,1,0-19.713-19.713,19.713,19.713,0,0,0,19.713,19.713Zm-2.335-31.3V7.59a2.335,2.335,0,1,1,4.67,0v.539a6.173,6.173,0,0,1,4.868,6.025,2.335,2.335,0,1,1-4.67,0A1.5,1.5,0,0,0,199.5,12.66h-2.093a1.493,1.493,0,0,0-.889,2.694l1.942,1.438,4.719,3.493a6.188,6.188,0,0,1,2.5,4.912v.022A6.167,6.167,0,0,1,200.8,31.29v.546a2.335,2.335,0,1,1-4.67,0V31.3a6.163,6.163,0,0,1-4.865-5.987,2.334,2.334,0,0,1,2.319-2.349h.016a2.335,2.335,0,0,1,2.335,2.321,1.491,1.491,0,0,0,1.5,1.485l2.09-.012a1.493,1.493,0,0,0,1.485-1.5v-.022a1.5,1.5,0,0,0-.605-1.191l-1.942-1.44-4.72-3.493a6.163,6.163,0,0,1,2.386-10.982Z" transform="translate(-147.717)" fill="url(#linear-gradient)"/>
    <path id="Path_2" data-name="Path 2" d="M18.589,319.489a2.175,2.175,0,0,0-2.972-.8L4.636,325.032a2.178,2.178,0,0,0-.8,2.973L15.06,347.444a2.176,2.176,0,0,0,2.972.8L29.016,341.9a2.175,2.175,0,0,0,.8-2.972Z" transform="translate(0 -268.532)" fill="url(#linear-gradient)"/>
    <path id="Path_3" data-name="Path 3" d="M193.575,276.387a3.271,3.271,0,0,0-4.568-.742c-4.448,3.2-12.989,9.358-13.668,9.849a8.255,8.255,0,0,1-.984.721,8.469,8.469,0,0,1-4.527,1.3H158.646a2.335,2.335,0,1,1,0-4.669H170.6a3.094,3.094,0,0,0,3.091-3.223,3.143,3.143,0,0,0-3.166-2.965h-9.1a15.148,15.148,0,0,0-2.016-1.784,14.933,14.933,0,0,0-8.893-2.92,16.472,16.472,0,0,0-14.25,8.706l9.55,16.54H163.73a20.107,20.107,0,0,0,10.031-2.654,40.167,40.167,0,0,0,3.415-2.218c5.139-3.692,15.646-11.362,15.654-11.366a3.272,3.272,0,0,0,.745-4.575Z" transform="translate(-111.754 -229.38)" fill="url(#linear-gradient)"/>
  </g>
</svg>
