<svg xmlns="http://www.w3.org/2000/svg" xmlns:xlink="http://www.w3.org/1999/xlink" width="87.047" height="80" viewBox="0 0 87.047 80">
  <defs>
    <linearGradient id="linear-gradient" x1="0.5" x2="0.5" y2="1" gradientUnits="objectBoundingBox">
      <stop offset="0" stop-color="#2a57d7"/>
      <stop offset="1" stop-color="#00e4d0"/>
    </linearGradient>
  </defs>
  <g id="floor" transform="translate(0 -19.641)">
    <g id="Group_14" data-name="Group 14" transform="translate(0 19.641)">
      <g id="Group_13" data-name="Group 13">
        <path id="Path_115" data-name="Path 115" d="M146.818,95.645h-15.9a4.422,4.422,0,0,0-4.423,4.424v11.48h-11.48a4.421,4.421,0,0,0-4.424,4.422v11.481H99.108a4.423,4.423,0,0,0-4.423,4.422v12.034H82.653a4.42,4.42,0,0,0-4.423,4.422v9.253a4.423,4.423,0,0,0,4.423,4.425h64.164a4.421,4.421,0,0,0,4.423-4.425V100.067a4.421,4.421,0,0,0-4.423-4.422Z" transform="translate(-64.193 -82.008)" fill="url(#linear-gradient)"/>
        <path id="Path_116" data-name="Path 116" d="M59.347,20.532a2.948,2.948,0,0,0-4.169-.054C36.262,38.9,18.267,56.9.864,74.3A2.953,2.953,0,0,0,0,76.389V96.57a2.95,2.95,0,1,0,5.9,0V77.61C23.018,60.489,40.718,42.8,59.292,24.7a2.951,2.951,0,0,0,.055-4.168Z" transform="translate(0 -19.641)" fill="url(#linear-gradient)"/>
      </g>
    </g>
  </g>
</svg>
