<svg xmlns="http://www.w3.org/2000/svg" xmlns:xlink="http://www.w3.org/1999/xlink" width="83.479" height="79.905" viewBox="0 0 83.479 79.905">
  <defs>
    <linearGradient id="linear-gradient" x1="0.5" x2="0.5" y2="1" gradientUnits="objectBoundingBox">
      <stop offset="0" stop-color="#2a57d7"/>
      <stop offset="1" stop-color="#00e4d0"/>
    </linearGradient>
  </defs>
  <g id="monthly-income" transform="translate(-0.001 -1.091)">
    <path id="Path_4" data-name="Path 4" d="M10.864,52.621A29.079,29.079,0,0,0,18.6,57.557l14.762-9.27a7.87,7.87,0,0,1,9.7,1.1l4.963,4.963a29.51,29.51,0,1,0-37.162-1.729ZM31.887,33.174H29.243a7.383,7.383,0,0,1-1.287-14.65V15.783a2.609,2.609,0,1,1,5.218,0v2.609h3.478a2.609,2.609,0,1,1,0,5.218H29.243a2.174,2.174,0,1,0,0,4.348h2.643a7.383,7.383,0,0,1,1.287,14.65v2.737a2.609,2.609,0,1,1-5.218,0V42.739H24.478a2.609,2.609,0,1,1,0-5.217h7.409a2.174,2.174,0,0,0,0-4.348Z" transform="translate(2.477)" fill="url(#linear-gradient)"/>
    <path id="Path_5" data-name="Path 5" d="M80,12H66.086a3.477,3.477,0,0,0-2.459,5.937l4.5,4.5L53.912,36.647,42.458,25.193a3.478,3.478,0,0,0-4.289-.5L1.648,47.3a3.478,3.478,0,0,0,1.833,6.435,3.439,3.439,0,0,0,1.826-.522L39.484,32.059,51.45,44.024a3.474,3.474,0,0,0,4.918,0L73.043,27.353l4.5,4.5a3.477,3.477,0,0,0,5.937-2.459V15.478A3.477,3.477,0,0,0,80,12Z" transform="translate(0 27.261)" fill="url(#linear-gradient)"/>
  </g>
</svg>
