<svg id="new-patient" xmlns="http://www.w3.org/2000/svg" xmlns:xlink="http://www.w3.org/1999/xlink" width="80" height="80" viewBox="0 0 80 80">
  <defs>
    <linearGradient id="linear-gradient" x1="0.5" x2="0.5" y2="1" gradientUnits="objectBoundingBox">
      <stop offset="0" stop-color="#2a57d7"/>
      <stop offset="1" stop-color="#00e4d0"/>
    </linearGradient>
  </defs>
  <path id="Path_49" data-name="Path 49" d="M32.833,52H31.167a5.84,5.84,0,0,1-5.833-5.833v-7.5h-7.5A5.84,5.84,0,0,1,12,32.833V31.167a5.84,5.84,0,0,1,5.833-5.833h7.5v-7.5A5.84,5.84,0,0,1,31.167,12h1.667a5.84,5.84,0,0,1,5.833,5.833v7.5h7.5A5.84,5.84,0,0,1,52,31.167v1.667a5.84,5.84,0,0,1-5.833,5.833h-7.5v7.5A5.84,5.84,0,0,1,32.833,52Z" transform="translate(28 28)" fill="url(#linear-gradient)"/>
  <circle id="Ellipse_2" data-name="Ellipse 2" cx="16.5" cy="16.5" r="16.5" transform="translate(13)" fill="url(#linear-gradient)"/>
  <path id="Path_50" data-name="Path 50" d="M33.333,32.833V31.167a12.513,12.513,0,0,1,12.5-12.5h.833v-.833a12.4,12.4,0,0,1,1.14-5.15A16.542,16.542,0,0,0,43.333,12H16.667A16.668,16.668,0,0,0,0,28.666V39.5A2.5,2.5,0,0,0,2.5,42H37.4A12.429,12.429,0,0,1,33.333,32.833Z" transform="translate(0 28)" fill="url(#linear-gradient)"/>
</svg>
