<svg xmlns="http://www.w3.org/2000/svg" xmlns:xlink="http://www.w3.org/1999/xlink" width="112.264" height="80.17" viewBox="0 0 112.264 80.17">
  <defs>
    <linearGradient id="linear-gradient" x1="0.5" x2="0.5" y2="1" gradientUnits="objectBoundingBox">
      <stop offset="0" stop-color="#2a57d7"/>
      <stop offset="1" stop-color="#00e4d0"/>
    </linearGradient>
  </defs>
  <g id="Ward" transform="translate(-1595.124 -1461.69)">
    <g id="ward-2" data-name="ward" transform="translate(1595.124 1501.775)">
      <path id="Path_111" data-name="Path 111" d="M147.253,65.142h.962v3.144a11.364,11.364,0,0,0,.836,4.271,3.882,3.882,0,0,1,.663-.058h.627a10.159,10.159,0,0,1-.918-4.213V65.142h1a.607.607,0,0,0,.607-.607V59.684a.607.607,0,0,0-.607-.607h-1v-.916a.235.235,0,0,1,.235-.235h2.293V72.5h1.812V53.889a.906.906,0,1,0-1.812,0v2.829h-2.293a1.445,1.445,0,0,0-1.443,1.443v.915h-.962a.607.607,0,0,0-.607.607v4.851a.607.607,0,0,0,.607.607Z" transform="translate(-132.191 -52.982)" fill="url(#linear-gradient)"/>
      <path id="Path_112" data-name="Path 112" d="M48.544,150.65a1.994,1.994,0,0,0-2,1.991c0,.611.02,14.975.025,18.517a1.2,1.2,0,0,1-1.2,1.195h-30.5a1.2,1.2,0,0,1-1.2-1.195v-1.933a3,3,0,0,1-1.427-.881H11.123a1.567,1.567,0,0,0-.82-2.025L8,165.307a3.78,3.78,0,1,0-1.237-.543L4,163.551V152.641a2,2,0,1,0-3.994,0v26.375a2,2,0,1,0,3.994,0v-3.607H46.547v3.607a2,2,0,0,0,3.993,0V152.641a1.994,1.994,0,0,0-2-1.991Z" transform="translate(-0.003 -140.928)" fill="url(#linear-gradient)"/>
      <path id="Path_113" data-name="Path 113" d="M150.82,263.056h14.365a3.02,3.02,0,1,1,0,6.04H150.691v1.845h30.751v-7.064a2.666,2.666,0,0,0-2.666-2.666H153.357a2.666,2.666,0,0,0-2.536,1.845Z" transform="translate(-136.113 -240.711)" fill="url(#linear-gradient)"/>
      <path id="Path_114" data-name="Path 114" d="M129.493,294.831h14.9a1.9,1.9,0,0,0,0-3.792h-14.9a1.9,1.9,0,0,0,0,3.792Z" transform="translate(-115.063 -267.56)" fill="url(#linear-gradient)"/>
    </g>
    <g id="ward-3" data-name="ward" transform="translate(1595.124 1461.69)">
      <path id="Path_111-2" data-name="Path 111" d="M147.253,65.142h.962v3.144a11.364,11.364,0,0,0,.836,4.271,3.882,3.882,0,0,1,.663-.058h.627a10.159,10.159,0,0,1-.918-4.213V65.142h1a.607.607,0,0,0,.607-.607V59.684a.607.607,0,0,0-.607-.607h-1v-.916a.235.235,0,0,1,.235-.235h2.293V72.5h1.812V53.889a.906.906,0,1,0-1.812,0v2.829h-2.293a1.445,1.445,0,0,0-1.443,1.443v.915h-.962a.607.607,0,0,0-.607.607v4.851a.607.607,0,0,0,.607.607Z" transform="translate(-132.191 -52.982)" fill="url(#linear-gradient)"/>
      <path id="Path_112-2" data-name="Path 112" d="M48.544,150.65a1.994,1.994,0,0,0-2,1.991c0,.611.02,14.975.025,18.517a1.2,1.2,0,0,1-1.2,1.195h-30.5a1.2,1.2,0,0,1-1.2-1.195v-1.933a3,3,0,0,1-1.427-.881H11.123a1.567,1.567,0,0,0-.82-2.025L8,165.307a3.78,3.78,0,1,0-1.237-.543L4,163.551V152.641a2,2,0,1,0-3.994,0v26.375a2,2,0,1,0,3.994,0v-3.607H46.547v3.607a2,2,0,0,0,3.993,0V152.641a1.994,1.994,0,0,0-2-1.991Z" transform="translate(-0.003 -140.928)" fill="url(#linear-gradient)"/>
      <path id="Path_113-2" data-name="Path 113" d="M150.82,263.056h14.365a3.02,3.02,0,1,1,0,6.04H150.691v1.845h30.751v-7.064a2.666,2.666,0,0,0-2.666-2.666H153.357a2.666,2.666,0,0,0-2.536,1.845Z" transform="translate(-136.113 -240.711)" fill="url(#linear-gradient)"/>
      <path id="Path_114-2" data-name="Path 114" d="M129.493,294.831h14.9a1.9,1.9,0,0,0,0-3.792h-14.9a1.9,1.9,0,0,0,0,3.792Z" transform="translate(-115.063 -267.56)" fill="url(#linear-gradient)"/>
    </g>
    <g id="ward-4" data-name="ward" transform="translate(1656.85 1501.775)">
      <path id="Path_111-3" data-name="Path 111" d="M153.156,65.142h-.962v3.144a11.364,11.364,0,0,1-.836,4.271,3.883,3.883,0,0,0-.663-.058h-.627a10.158,10.158,0,0,0,.918-4.213V65.142h-1a.607.607,0,0,1-.607-.607V59.684a.607.607,0,0,1,.607-.607h1v-.916a.235.235,0,0,0-.235-.235h-2.293V72.5h-1.812V53.889a.906.906,0,1,1,1.812,0v2.829h2.293a1.445,1.445,0,0,1,1.443,1.443v.915h.962a.607.607,0,0,1,.607.607v4.851a.607.607,0,0,1-.607.607Z" transform="translate(-117.68 -52.982)" fill="url(#linear-gradient)"/>
      <path id="Path_112-3" data-name="Path 112" d="M2,150.65a1.994,1.994,0,0,1,2,1.991c0,.611-.02,14.975-.025,18.517a1.2,1.2,0,0,0,1.2,1.195h30.5a1.2,1.2,0,0,0,1.2-1.195v-1.933a3,3,0,0,0,1.427-.881H39.42a1.567,1.567,0,0,1,.82-2.025l2.3-1.011a3.78,3.78,0,1,1,1.237-.543l2.766-1.213V152.641a2,2,0,1,1,3.994,0v26.375a2,2,0,1,1-3.994,0v-3.607H4v3.607a2,2,0,1,1-3.993,0V152.641a1.994,1.994,0,0,1,2-1.991Z" transform="translate(-0.002 -140.928)" fill="url(#linear-gradient)"/>
      <path id="Path_113-3" data-name="Path 113" d="M181.312,263.056H166.948a3.02,3.02,0,1,0,0,6.04h14.494v1.845H150.691v-7.064a2.666,2.666,0,0,1,2.666-2.666h25.419a2.666,2.666,0,0,1,2.536,1.845Z" transform="translate(-145.482 -240.711)" fill="url(#linear-gradient)"/>
      <path id="Path_114-3" data-name="Path 114" d="M144.39,294.831h-14.9a1.9,1.9,0,1,1,0-3.792h14.9a1.9,1.9,0,0,1,0,3.792Z" transform="translate(-108.281 -267.56)" fill="url(#linear-gradient)"/>
    </g>
    <g id="ward-5" data-name="ward" transform="translate(1656.85 1461.69)">
      <path id="Path_111-4" data-name="Path 111" d="M153.156,65.142h-.962v3.144a11.364,11.364,0,0,1-.836,4.271,3.883,3.883,0,0,0-.663-.058h-.627a10.158,10.158,0,0,0,.918-4.213V65.142h-1a.607.607,0,0,1-.607-.607V59.684a.607.607,0,0,1,.607-.607h1v-.916a.235.235,0,0,0-.235-.235h-2.293V72.5h-1.812V53.889a.906.906,0,1,1,1.812,0v2.829h2.293a1.445,1.445,0,0,1,1.443,1.443v.915h.962a.607.607,0,0,1,.607.607v4.851a.607.607,0,0,1-.607.607Z" transform="translate(-117.68 -52.982)" fill="url(#linear-gradient)"/>
      <path id="Path_112-4" data-name="Path 112" d="M2,150.65a1.994,1.994,0,0,1,2,1.991c0,.611-.02,14.975-.025,18.517a1.2,1.2,0,0,0,1.2,1.195h30.5a1.2,1.2,0,0,0,1.2-1.195v-1.933a3,3,0,0,0,1.427-.881H39.42a1.567,1.567,0,0,1,.82-2.025l2.3-1.011a3.78,3.78,0,1,1,1.237-.543l2.766-1.213V152.641a2,2,0,1,1,3.994,0v26.375a2,2,0,1,1-3.994,0v-3.607H4v3.607a2,2,0,1,1-3.993,0V152.641a1.994,1.994,0,0,1,2-1.991Z" transform="translate(-0.002 -140.928)" fill="url(#linear-gradient)"/>
      <path id="Path_113-4" data-name="Path 113" d="M181.312,263.056H166.948a3.02,3.02,0,1,0,0,6.04h14.494v1.845H150.691v-7.064a2.666,2.666,0,0,1,2.666-2.666h25.419a2.666,2.666,0,0,1,2.536,1.845Z" transform="translate(-145.482 -240.711)" fill="url(#linear-gradient)"/>
      <path id="Path_114-4" data-name="Path 114" d="M144.39,294.831h-14.9a1.9,1.9,0,1,1,0-3.792h14.9a1.9,1.9,0,0,1,0,3.792Z" transform="translate(-108.281 -267.56)" fill="url(#linear-gradient)"/>
    </g>
  </g>
</svg>
