<?xml version="1.0"?>
<svg xmlns="http://www.w3.org/2000/svg" xmlns:xlink="http://www.w3.org/1999/xlink" xmlns:svgjs="http://svgjs.com/svgjs" version="1.1" width="512" height="512" x="0" y="0" viewBox="0 0 511 512" style="enable-background:new 0 0 512 512" xml:space="preserve" class=""><g><path xmlns="http://www.w3.org/2000/svg" d="m503.019531 485.863281c0-67.117187-26.136719-130.210937-73.59375-177.667969-12.8125-12.8125-26.769531-24.054687-41.632812-33.664062v90.324219c16.121093 6.25 27.589843 21.914062 27.589843 40.214843 0 23.777344-19.34375 43.121094-43.121093 43.121094-23.777344 0-43.117188-19.34375-43.117188-43.121094 0-18.753906 12.039063-34.742187 28.789063-40.660156v-106.402344c-3.707032-1.730468-7.457032-3.371093-11.246094-4.914062-2.933594 2.242188-5.949219 4.382812-9.042969 6.417969l-70.957031 99.753906v152.734375h236.332031zm-201.003906-21.574219c-8.367187 0-14.566406-6.839843-14.925781-14.929687-.363282-8.0625 7.121094-14.929687 14.925781-14.929687 8.371094 0 14.566406 6.839843 14.929687 14.929687.363282 8.0625-7.121093 14.929687-14.929687 14.929687zm0 0" fill="#ffffff" data-original="#000000" class=""/><path xmlns="http://www.w3.org/2000/svg" d="m166.019531 259.609375c-3.144531-2.0625-6.207031-4.238281-9.191406-6.515625-2.195313.894531-4.382813 1.816406-6.554687 2.773438v104.960937c32.746093 7.472656 57.257812 36.8125 57.257812 71.785156v26.269531h-29.855469v-26.269531c0-24.144531-19.644531-43.789062-43.789062-43.789062-24.148438 0-43.792969 19.644531-43.792969 43.789062v27.855469h-29.859375v-27.855469c0-36.007812 25.984375-66.042969 60.183594-72.390625v-88.648437c-16.625 10.234375-32.175781 22.472656-46.324219 36.621093-47.457031 47.457032-73.59375 110.554688-73.59375 177.667969v26.136719h236.328125v-152.753906zm0 0" fill="#ffffff" data-original="#000000" class=""/><path xmlns="http://www.w3.org/2000/svg" d="m285.308594 281.589844c-10.8125 2.367187-22.035156 3.628906-33.550782 3.628906-11.496093 0-22.699218-1.257812-33.496093-3.617188l33.5 47.160157zm0 0" fill="#ffffff" data-original="#000000" class=""/><path xmlns="http://www.w3.org/2000/svg" d="m372.261719 391.808594c-7.3125 0-13.261719 5.953125-13.261719 13.261718 0 7.316407 5.949219 13.265626 13.261719 13.265626s13.261719-5.953126 13.261719-13.265626-5.949219-13.261718-13.261719-13.261718zm0 0" fill="#ffffff" data-original="#000000" class=""/><path xmlns="http://www.w3.org/2000/svg" d="m251.757812 254.363281c70.128907 0 127.183594-57.050781 127.183594-127.179687s-57.054687-127.183594-127.183594-127.183594c-70.125 0-127.183593 57.054688-127.183593 127.183594s57.054687 127.179687 127.183593 127.179687zm0 0" fill="#ffffff" data-original="#000000" class=""/></g></svg>
