<?xml version="1.0"?>
<svg xmlns="http://www.w3.org/2000/svg" xmlns:xlink="http://www.w3.org/1999/xlink" xmlns:svgjs="http://svgjs.com/svgjs" version="1.1" width="512" height="512" x="0" y="0" viewBox="0 0 68 68" style="enable-background:new 0 0 512 512" xml:space="preserve" class=""><g><g xmlns="http://www.w3.org/2000/svg" id="Lab_Report"><g><path d="m23.4 30.3h6.9c.6 0 1-.5 1-1 0-.6-.4-1-1-1h-6.9c-.6 0-1 .5-1 1-.1.5.4 1 1 1z" fill="#ffffff" data-original="#000000" class=""/><path d="m23.4 54h3.1c.6 0 1-.5 1-1 0-.6-.5-1-1-1h-3.1c-.6 0-1 .4-1 1-.1.6.4 1 1 1z" fill="#ffffff" data-original="#000000" class=""/><path d="m30.3 56.7h-6.9c-.6 0-1 .4-1 1s.4 1 1 1h6.9c.6 0 1-.5 1-1s-.4-1-1-1z" fill="#ffffff" data-original="#000000" class=""/><path d="m23.4 39.8h6.9c.6 0 1-.5 1-1 0-.6-.4-1-1-1h-6.9c-.6 0-1 .4-1 1-.1.5.4 1 1 1z" fill="#ffffff" data-original="#000000" class=""/><path d="m23.4 44.5h3.1c.6 0 1-.5 1-1s-.5-1-1-1h-3.1c-.6 0-1 .5-1 1s.4 1 1 1z" fill="#ffffff" data-original="#000000" class=""/><path d="m23.4 11.3h17.5c.6 0 1-.5 1-1 0-.6-.4-1-1-1h-17.5c-.6 0-1 .5-1 1-.1.5.4 1 1 1z" fill="#ffffff" data-original="#000000" class=""/><path d="m23.4 16h9.2c.6 0 1-.5 1-1s-.5-1-1-1h-9.2c-.6 0-1 .5-1 1s.4 1 1 1z" fill="#ffffff" data-original="#000000" class=""/><path d="m16.2 8h-6.5c-1 0-1.7.7-1.7 1.6v6c0 .9.7 1.7 1.7 1.7h6.5c.9 0 1.7-.7 1.7-1.7v-6c-.1-.9-.8-1.6-1.7-1.6zm-1.1 4.1-2.2 2.1c-.3.3-.8.3-1.1 0l-1.1-1.2c-.3-.3-.3-.8 0-1.1s.8-.3 1.1 0l.6.6 1.7-1.6c.3-.3.8-.3 1.1 0 .2.5.2.9-.1 1.2z" fill="#ffffff" data-original="#000000" class=""/><path d="m16.2 22.2h-6.5c-1 0-1.7.8-1.7 1.7v5.9c0 .9.7 1.7 1.7 1.7h6.5c.9 0 1.7-.7 1.7-1.7v-5.9c-.1-.9-.8-1.7-1.7-1.7zm-1.1 4.2-2.2 2.1c-.3.3-.8.3-1.1 0l-1.1-1.2c-.3-.3-.3-.8 0-1.1s.8-.3 1.1 0l.6.7 1.7-1.6c.3-.3.8-.3 1.1 0 .2.3.2.8-.1 1.1z" fill="#ffffff" data-original="#000000" class=""/><path d="m16.2 36.5h-6.5c-.9 0-1.7.7-1.7 1.7v5.9c0 .9.7 1.7 1.7 1.7h6.5c.9 0 1.7-.7 1.7-1.7v-5.9c-.1-1-.8-1.7-1.7-1.7zm-1.1 4.1-2.2 2.1c-.3.3-.8.3-1.1 0l-1.1-1.2c-.3-.3-.3-.8 0-1.1s.8-.3 1.1 0l.6.7 1.7-1.6c.3-.3.8-.3 1.1 0s.2.9-.1 1.1z" fill="#ffffff" data-original="#000000" class=""/><path d="m60.6 59.7h-1.9v-.1c-.1-1-.3-2-.6-2.9 4.7-2.4 7.9-7.1 7.9-12.7 0-7.2-5.3-13.1-12.3-13.9-.3-1.1-.9-2.2-1.9-2.9l1.1-2c.7-1.4.1-3-1.1-3.6l-.9-.5.7-1.3.2.1c1.4.8 3.2.2 3.9-1.2.8-1.4.2-3.2-1.2-3.9l-3.7-2v-4.2c0-3.6-2.9-6.6-6.6-6.6h-35.6c-3.6 0-6.6 2.9-6.6 6.6v50.9c0 3.6 3 6.5 6.6 6.5h54c.4 0 .8-.3.8-.8v-2.8c0-1.5-1.3-2.7-2.8-2.7zm-9.5-35.5c-.1.1-1.2 2.3-1.1 2.1-.1-.1-.9-.1-1.1-.1-4 0-6.3 4.5-4.1 7.8.2.3.4.5.7.8l-1.9 3.6c-.2.3-.6.4-.9.3l-7.5-4c-.3-.2-.4-.6-.3-.9.1-.1 7.7-14.3 7.6-14.2.2-.3.6-.4.9-.3 6.5 3.8 7.3 3.8 7.5 4 .3.2.4.6.2.9zm5.6 35.1c-5.2 0-11.1 0-17.8 0 .5-4.3 4.3-7.9 8.9-7.9 4.5 0 8.4 3.4 8.9 7.9zm-7.9-25.2c-1.6 0-2.9-1.3-2.9-2.9 0-1.7 1.4-3 2.9-3 .1 0 1.9 0 2.7 1.7.9 2-.6 4.2-2.7 4.2zm13.5 9.9c0 4.2-2.5 7.8-6 9.4-1.4-1.7-3.3-3-5.4-3.6v-14.1c1-.4 1.8-1.2 2.3-2 5.1.6 9.1 5 9.1 10.3zm-58.2 15.4v-50.8c0-2.5 2-4.5 4.5-4.5h35.7c2.5 0 4.5 2 4.5 4.5v3.2l-.4-.2c-1.4-.8-3.2-.2-3.9 1.2-.8 1.5-.1 3.2 1.2 3.9l.2.1-.7 1.2-.9-.5c-1.4-.7-3-.2-3.6 1.1l-2.7 4.9h-14.6c-.6 0-1 .5-1 1 0 .6.4 1 1 1h13.6l-3.9 7.2c-.3.6-.4 1.3-.2 2s.7 1.2 1.3 1.6l.3.2-1.2 2.1c-.5.9-.1 2 .7 2.4l3.7 2c.8.4 2 .2 2.4-.7l1.2-2.1.3.2c.4.2.8.3 1.3.3 1 0 1.9-.5 2.4-1.4l1.9-3.5c.3.1.5.2.8.2.3.1.6.1.9.1v13.3c-.3 0-.7-.1-1-.1-4.4 0-8.1 2.6-9.9 6.3-1.3-.3-2.4-1.5-2.4-2.9v-2.1h4.6c1.2 0 2.1-1 2.1-2.1 0-1.2-1-2.1-2.1-2.1h-10.7c-1.2 0-2.1 1-2.1 2.1 0 1.2 1 2.1 2.1 2.1h4.1v2.1c0 2.3 1.6 4.3 3.7 4.8-.2.6-.3 1.3-.3 1.9v.1h-2c-1.5 0-2.7 1.2-2.7 2.7v1.8h-23.7c-2.5 0-4.5-2.1-4.5-4.6z" fill="#ffffff" data-original="#000000" class=""/><path d="m48.8 29.8c-.6 0-1.2.5-1.3 1.1-.1.8.5 1.6 1.3 1.6.7 0 1.3-.5 1.4-1.1.2-.8-.5-1.6-1.4-1.6z" fill="#ffffff" data-original="#000000" class=""/><path d="m47.9 54.2c-1 0-1.9.8-1.9 1.9s.8 1.9 1.9 1.9c1 0 1.9-.8 1.9-1.9s-.9-1.9-1.9-1.9z" fill="#ffffff" data-original="#000000" class=""/><path d="m16.2 50.8h-6.5c-.9 0-1.7.7-1.7 1.7v5.9c0 .9.7 1.6 1.7 1.6h6.5c.9 0 1.7-.7 1.7-1.7v-5.9c-.1-.9-.8-1.6-1.7-1.6z" fill="#ffffff" data-original="#000000" class=""/></g></g></g></svg>
