<?xml version="1.0"?>
<svg xmlns="http://www.w3.org/2000/svg" xmlns:xlink="http://www.w3.org/1999/xlink" xmlns:svgjs="http://svgjs.com/svgjs" version="1.1" width="512" height="512" x="0" y="0" viewBox="0 0 512 512" style="enable-background:new 0 0 512 512" xml:space="preserve" class=""><g>
<g xmlns="http://www.w3.org/2000/svg">
	<g>
		<g>
			<path d="M181.076,224.687c61.947,0,112.343-50.397,112.343-112.343S243.023,0,181.076,0S68.733,50.397,68.733,112.343     S119.13,224.687,181.076,224.687z" fill="#ffffff" data-original="#000000" class=""/>
			<path d="M468.472,450.129c-1.126-2.434-3.608-3.954-6.289-3.954h-89.546c-11.273,0-20.974-8.663-21.504-19.924     c-0.567-12.023,9.014-21.948,20.912-21.948h60.439c5.27,0,8.64-5.619,6.155-10.267l-24.413-45.693V243.584h9.016     c11.562,0,20.936-9.374,20.936-20.936s-9.374-20.936-20.936-20.936H267.467c-11.562,0-20.936,9.374-20.936,20.936     s9.374,20.936,20.936,20.936h9.016v104.759l-53.377,99.902c-16.2,27.972,3.622,63.755,36.79,63.755H430.6     C459.309,512,483.763,483.154,468.472,450.129z M318.354,243.586h54.001v88.662c-12.716-0.04-30.044,0.23-54.001,0.348V243.586z" fill="#ffffff" data-original="#000000" class=""/>
			<path d="M254.723,344.641c0.54-1.012,0.823-2.141,0.823-3.288v-66.645c0-2.493-1.33-4.797-3.489-6.044     c-18.544-10.709-29.214-16.869-47.698-27.542c-14.362-8.293-32.205-8.293-46.564-0.001     c-45.891,26.498-22.778,13.152-95.692,55.257c-14.359,8.292-23.279,23.743-23.279,40.323v111.644     c0,25.715,20.847,46.561,46.561,46.561h106.544c4.616,0,7.919-4.391,6.713-8.846c-4.464-16.492-2.032-33.638,6.15-47.967     L254.723,344.641z M181.076,348.14c-29.807-72.17-19.6-47.458-24.048-58.224l21.706-12.534c1.445-0.836,3.24-0.835,4.687,0.001     l21.704,12.532L181.076,348.14z" fill="#ffffff" data-original="#000000" class=""/>
		</g>
	</g>
</g>
<g xmlns="http://www.w3.org/2000/svg">
</g>
<g xmlns="http://www.w3.org/2000/svg">
</g>
<g xmlns="http://www.w3.org/2000/svg">
</g>
<g xmlns="http://www.w3.org/2000/svg">
</g>
<g xmlns="http://www.w3.org/2000/svg">
</g>
<g xmlns="http://www.w3.org/2000/svg">
</g>
<g xmlns="http://www.w3.org/2000/svg">
</g>
<g xmlns="http://www.w3.org/2000/svg">
</g>
<g xmlns="http://www.w3.org/2000/svg">
</g>
<g xmlns="http://www.w3.org/2000/svg">
</g>
<g xmlns="http://www.w3.org/2000/svg">
</g>
<g xmlns="http://www.w3.org/2000/svg">
</g>
<g xmlns="http://www.w3.org/2000/svg">
</g>
<g xmlns="http://www.w3.org/2000/svg">
</g>
<g xmlns="http://www.w3.org/2000/svg">
</g>
</g></svg>
