<svg id="_003-patient" data-name="003-patient" xmlns="http://www.w3.org/2000/svg" xmlns:xlink="http://www.w3.org/1999/xlink" width="80" height="80" viewBox="0 0 80 80">
  <defs>
    <linearGradient id="linear-gradient" x1="0.245" y1="-1.168" x2="-0.344" y2="0.165" gradientUnits="objectBoundingBox">
      <stop offset="0" stop-color="#2a57d7"/>
      <stop offset="1" stop-color="#00e4d0"/>
    </linearGradient>
  </defs>
  <path id="Path_6" data-name="Path 6" d="M27.333,42.667a3.334,3.334,0,0,1-2.773-1.483l-5.677-8.517h-6.55a3.333,3.333,0,0,1,0-6.667h8.333a3.338,3.338,0,0,1,2.773,1.483l3.48,5.22,7.43-14.863A3.338,3.338,0,0,1,37.2,16a3.288,3.288,0,0,1,2.987,1.613l9.03,15.053h6.447a3.333,3.333,0,1,1,0,6.667H47.333a3.329,3.329,0,0,1-2.857-1.617L37.6,26.257l-7.283,14.57a3.337,3.337,0,0,1-2.777,1.837C27.473,42.667,27.4,42.667,27.333,42.667Z" transform="translate(21 37.333)" fill="url(#linear-gradient)"/>
  <circle id="Ellipse_1" data-name="Ellipse 1" cx="16.913" cy="16.913" r="16.913" transform="translate(13.326)" fill="url(#linear-gradient)"/>
  <path id="Path_7" data-name="Path 7" d="M23.333,38.667a10.012,10.012,0,0,1,10-10h8.333a9.993,9.993,0,0,1,4.86,1.257l2.863-5.73a9.944,9.944,0,0,1,7.38-5.313A16.613,16.613,0,0,0,43.333,12H16.667A16.668,16.668,0,0,0,0,28.667V39.5A2.5,2.5,0,0,0,2.5,42H23.947A9.887,9.887,0,0,1,23.333,38.667Z" transform="translate(0 28)" fill="url(#linear-gradient)"/>
</svg>
