<svg xmlns="http://www.w3.org/2000/svg" xmlns:xlink="http://www.w3.org/1999/xlink" width="95.063" height="80" viewBox="0 0 95.063 80">
  <defs>
    <linearGradient id="linear-gradient" x1="1.231" y1="-0.241" x2="0.181" y2="0.76" gradientUnits="objectBoundingBox">
      <stop offset="0" stop-color="#2a57d7"/>
      <stop offset="0.025" stop-color="#285dd7"/>
      <stop offset="1" stop-color="#00e4d0"/>
    </linearGradient>
  </defs>
  <g id="_005-multiple-users-silhouette" data-name="005-multiple-users-silhouette" transform="translate(0 -6.348)">
    <path id="Path_10" data-name="Path 10" d="M57.367,20.079a17.274,17.274,0,0,1,8.039,12.833,13.936,13.936,0,1,0-8.039-12.833ZM48.233,48.625A13.942,13.942,0,1,0,34.288,34.684,13.942,13.942,0,0,0,48.233,48.625Zm5.914.95H42.316A17.872,17.872,0,0,0,24.465,67.428V81.9l.037.227,1,.312A81.257,81.257,0,0,0,49.77,86.348c13.12,0,20.725-3.741,21.193-3.979l.931-.471h.1V67.428A17.867,17.867,0,0,0,54.147,49.576ZM77.213,35.183H65.474a17.182,17.182,0,0,1-5.3,11.968,21.212,21.212,0,0,1,15.151,20.3v4.458c11.591-.425,18.27-3.71,18.71-3.93l.931-.472h.1V53.033A17.871,17.871,0,0,0,77.213,35.183Zm-53.444-.949a13.849,13.849,0,0,0,7.415-2.152,17.255,17.255,0,0,1,6.486-11c.014-.261.039-.52.039-.783a13.941,13.941,0,1,0-13.94,13.94ZM36.29,47.151a17.192,17.192,0,0,1-5.3-11.9c-.435-.032-.866-.066-1.31-.066H17.851A17.871,17.871,0,0,0,0,53.033V67.5l.037.223,1,.314a83.7,83.7,0,0,0,20.1,3.779V67.449A21.216,21.216,0,0,1,36.29,47.151Z" fill="url(#linear-gradient)"/>
  </g>
</svg>
