<svg xmlns="http://www.w3.org/2000/svg" width="101.609" height="80" viewBox="0 0 101.609 80">
  <g id="bed" transform="translate(0 -181)">
    <g id="_572608352" transform="translate(0 181)">
      <path id="Path_118" data-name="Path 118" d="M388.3,1055.95H313V1045h75.3Z" transform="translate(-294.369 -993.571)" fill="#fff" fill-rule="evenodd"/>
      <g id="Group_15" data-name="Group 15" transform="translate(8.988 30.655)">
        <path id="Path_119" data-name="Path 119" d="M161.06,745.345h-8.87a1.194,1.194,0,0,1-1.19-1.19V696a16.357,16.357,0,0,0,5.655.952,16.02,16.02,0,0,0,5.6-.952v48.155a1.194,1.194,0,0,1-1.2,1.19Z" transform="translate(-151 -696)" fill="#fff" fill-rule="evenodd"/>
        <path id="Path_120" data-name="Path 120" d="M1528.06,820.583h-8.869a1.194,1.194,0,0,1-1.19-1.19v-42.2a1.194,1.194,0,0,1,1.19-1.19h8.869a1.194,1.194,0,0,1,1.191,1.19v42.2a1.194,1.194,0,0,1-1.191,1.19Z" transform="translate(-1436.631 -771.238)" fill="#fff" fill-rule="evenodd"/>
      </g>
      <path id="Path_121" data-name="Path 121" d="M308.485,782.024l-6.012-6.25a5.9,5.9,0,0,1-2.679-3.512,5.552,5.552,0,0,1,.6-4.345,5.754,5.754,0,0,1,5-2.917,5.639,5.639,0,0,1,2.917.774l11.429,6.607h48.988a5.818,5.818,0,0,1,5.774,5.774c0,.476-.06,3.631-.119,3.988a6.563,6.563,0,0,0-1.071-.119Z" transform="translate(-281.759 -730.238)" fill="#fff" fill-rule="evenodd"/>
      <path id="Path_122" data-name="Path 122" d="M14.643,210.226a14.613,14.613,0,1,1,14.583-14.583,14.613,14.613,0,0,1-14.583,14.583Zm2.5-5.536h-5.06a1.194,1.194,0,0,1-1.19-1.19v-4.167H6.786a1.194,1.194,0,0,1-1.19-1.19v-5.06a1.194,1.194,0,0,1,1.19-1.19h4.107v-4.107a1.194,1.194,0,0,1,1.19-1.19h5.06a1.194,1.194,0,0,1,1.19,1.19v4.107H22.44a1.194,1.194,0,0,1,1.19,1.19v5.06a1.194,1.194,0,0,1-1.19,1.19H18.333V203.5A1.194,1.194,0,0,1,17.143,204.69Z" transform="translate(0 -181)" fill="#fff" fill-rule="evenodd"/>
    </g>
  </g>
</svg>
