<svg xmlns="http://www.w3.org/2000/svg" width="78.519" height="80" viewBox="0 0 78.519 80">
  <g id="doctor" transform="translate(-0.5 0.001)">
    <path id="Path_111" data-name="Path 111" d="M303.615,289.464a39,39,0,0,0-11.5-27.761,39.6,39.6,0,0,0-6.505-5.26v14.113a6.737,6.737,0,1,1-4.666-.07V253.861q-.869-.406-1.757-.768-.688.526-1.413,1l-11.087,15.587v23.865h36.927Zm-31.407-3.371a2.333,2.333,0,1,1,2.333-2.333A2.373,2.373,0,0,1,272.208,286.093Zm0,0" transform="translate(-224.596 -213.549)" fill="#fff"/>
    <path id="Path_112" data-name="Path 112" d="M26.363,254.111q-.737-.483-1.436-1.018-.515.21-1.024.433v16.4a11.525,11.525,0,0,1,8.947,11.216v4.1H28.184v-4.1a6.842,6.842,0,0,0-13.685,0V285.5H9.834v-4.352a11.524,11.524,0,0,1,9.4-11.311V255.981A39.561,39.561,0,0,0,12,261.7,39,39,0,0,0,.5,289.464v4.084H37.427V269.68Zm0,0" transform="translate(0 -213.548)" fill="#fff"/>
    <path id="Path_113" data-name="Path 113" d="M228.738,281.59a24.518,24.518,0,0,1-10.476,0l5.234,7.369Zm0,0" transform="translate(-183.737 -237.592)" fill="#fff"/>
    <path id="Path_114" data-name="Path 114" d="M361.072,391.809a2.072,2.072,0,1,0,2.072,2.072A2.075,2.075,0,0,0,361.072,391.809Zm0,0" transform="translate(-302.484 -330.59)" fill="#fff"/>
    <path id="Path_115" data-name="Path 115" d="M144.446,39.743a19.872,19.872,0,1,0-19.872-19.872A19.895,19.895,0,0,0,144.446,39.743Zm0,0" transform="translate(-104.687 0)" fill="#fff"/>
  </g>
</svg>
