<svg xmlns="http://www.w3.org/2000/svg" width="60" height="80" viewBox="0 0 60 80">
  <g id="food" transform="translate(-51.2)">
    <g id="Group_17" data-name="Group 17" transform="translate(51.2)">
      <g id="Group_16" data-name="Group 16">
        <path id="Path_123" data-name="Path 123" d="M81.2,26.667C81.2,11.94,74.478,0,66.2,0s-15,11.94-15,26.667a14.964,14.964,0,0,0,9.694,13.984L59.533,73.333a6.667,6.667,0,0,0,13.334,0L71.506,40.654A14.965,14.965,0,0,0,81.2,26.667Z" transform="translate(-51.2)" fill="#fff"/>
      </g>
    </g>
    <g id="Group_19" data-name="Group 19" transform="translate(86.2)">
      <g id="Group_18" data-name="Group 18">
        <path id="Path_124" data-name="Path 124" d="M255.4,24.167,254.567,0H250.4l-.833,24.167h-3.334L245.4,0h-5l-.833,24.167h-3.334L235.4,0h-4.167L230.4,24.167a12.483,12.483,0,0,0,7.409,11.393l-1.576,37.773a6.667,6.667,0,1,0,13.334,0L247.991,35.56A12.483,12.483,0,0,0,255.4,24.167Z" transform="translate(-230.4)" fill="#fff"/>
      </g>
    </g>
  </g>
</svg>
