<svg xmlns="http://www.w3.org/2000/svg" width="84.528" height="80" viewBox="0 0 84.528 80">
  <g id="_008-boxes" data-name="008-boxes" transform="translate(0 -13.714)">
    <g id="Page-1_11_" transform="translate(0 13.714)">
      <g id="_x30_12---Stacked-Boxes" transform="translate(0 0)">
        <path id="Shape_83_" d="M374,233.143H357.116l-7.547,7.547H362.8a4.474,4.474,0,0,1,2.014.494Z" transform="translate(-291.857 -196.917)" fill="#fff"/>
        <path id="Rectangle-path_11_" d="M265.143,443.429h6.039v3.019h-6.039Z" transform="translate(-221.369 -372.486)" fill="#fff"/>
        <path id="Shape_82_" d="M455.059,254.966v27.783l8.6-8.6a1.478,1.478,0,0,0,.453-1.066V244.818l-9.469,8.285A4.473,4.473,0,0,1,455.059,254.966Z" transform="translate(-379.587 -206.664)" fill="#fff"/>
        <path id="Shape_81_" d="M34.264,329.919l.027-.026a1.509,1.509,0,0,0,.426-1.052V298.652a1.509,1.509,0,0,0-1.509-1.509H1.509A1.509,1.509,0,0,0,0,298.652v30.189a1.509,1.509,0,0,0,1.509,1.509h31.7A1.5,1.5,0,0,0,34.264,329.919Zm-19.17-5.606a3.019,3.019,0,0,1-3.019,3.019H6.038a3.019,3.019,0,0,1-3.019-3.019v-3.019a3.019,3.019,0,0,1,3.019-3.019h6.038a3.019,3.019,0,0,1,3.019,3.019v3.019Zm15.094,3.019H25.66a1.509,1.509,0,1,1,0-3.019h4.528a1.509,1.509,0,1,1,0,3.019Zm0-6.038H25.66a1.509,1.509,0,0,1,0-3.019h4.528a1.509,1.509,0,0,1,0,3.019Z" transform="translate(0 -250.35)" fill="#fff"/>
        <path id="Rectangle-path_10_" d="M36.571,443.429H42.61v3.019H36.571Z" transform="translate(-30.533 -372.486)" fill="#fff"/>
        <path id="Shape_80_" d="M262.82,329.926l.017-.029.029-.027a1.509,1.509,0,0,0,.424-1.029V298.652a1.509,1.509,0,0,0-1.509-1.509h-31.7a1.509,1.509,0,0,0-1.509,1.509v30.189a1.509,1.509,0,0,0,1.509,1.509h31.7A1.51,1.51,0,0,0,262.82,329.926Zm-19.153-5.614a3.019,3.019,0,0,1-3.019,3.019H234.61a3.019,3.019,0,0,1-3.019-3.019v-3.019a3.019,3.019,0,0,1,3.019-3.019h6.038a3.019,3.019,0,0,1,3.019,3.019Zm15.094,3.019h-4.528a1.509,1.509,0,1,1,0-3.019h4.528a1.509,1.509,0,1,1,0,3.019Zm0-6.038h-4.528a1.509,1.509,0,0,1,0-3.019h4.528a1.509,1.509,0,0,1,0,3.019Z" transform="translate(-190.836 -250.35)" fill="#fff"/>
        <path id="Shape_79_" d="M267.932,21.755l9.189-8.041H264.927l-9.7,7.547h10.694A4.476,4.476,0,0,1,267.932,21.755Z" transform="translate(-213.088 -13.714)" fill="#fff"/>
        <path id="Shape_78_" d="M162.1,14.149a1.506,1.506,0,0,1-.213.181l-9.869,6.931h12.121l9.7-7.547H163.147A1.466,1.466,0,0,0,162.1,14.149Z" transform="translate(-126.921 -13.714)" fill="#fff"/>
        <path id="Shape_77_" d="M353.949,54.708a1.478,1.478,0,0,0,.453-1.057V25.39l-9.469,8.285a4.472,4.472,0,0,1,.412,1.863V63.325Z" transform="translate(-287.987 -23.462)" fill="#fff"/>
        <path id="Shape_76_" d="M43.242,233.578a1.5,1.5,0,0,1-.213.181l-9.869,6.931H44.568a4.475,4.475,0,0,1-.278-1.509v-6.038A1.466,1.466,0,0,0,43.242,233.578Z" transform="translate(-27.686 -196.916)" fill="#fff"/>
        <path id="Rectangle-path_9_" d="M155.429,224h6.039v3.019h-6.039Z" transform="translate(-129.769 -189.283)" fill="#fff"/>
        <path id="Shape_75_" d="M120.366,110.922h31.7a1.5,1.5,0,0,0,1.057-.43l.03-.03a1.5,1.5,0,0,0,.423-1.049V79.223a1.509,1.509,0,0,0-1.509-1.509h-31.7a1.509,1.509,0,0,0-1.509,1.509v30.189A1.509,1.509,0,0,0,120.366,110.922Zm24.151-12.075h4.528a1.509,1.509,0,1,1,0,3.019h-4.528a1.509,1.509,0,0,1,0-3.019Zm0,6.038h4.528a1.509,1.509,0,1,1,0,3.019h-4.528a1.509,1.509,0,0,1,0-3.019Zm-22.642-3.019a3.019,3.019,0,0,1,3.019-3.019h6.038a3.019,3.019,0,0,1,3.019,3.019v3.019a3.019,3.019,0,0,1-3.019,3.019h-6.038a3.019,3.019,0,0,1-3.019-3.019Z" transform="translate(-99.234 -67.148)" fill="#fff"/>
      </g>
    </g>
  </g>
</svg>
