<svg xmlns="http://www.w3.org/2000/svg" width="74.648" height="80" viewBox="0 0 74.648 80">
  <g id="_003-box" data-name="003-box" transform="translate(-17.126)">
    <g id="Group_16" data-name="Group 16" transform="translate(55.789 44.015)">
      <g id="Group_15" data-name="Group 15">
        <path id="Path_110" data-name="Path 110" d="M282.561,281.694a17.993,17.993,0,1,0,17.993,17.993A18.013,18.013,0,0,0,282.561,281.694Zm-2.1,25.532-6.77-6.7,3.3-3.336,3.442,3.408,7.685-7.727,3.328,3.31Z" transform="translate(-264.568 -281.694)" fill="#fff"/>
      </g>
    </g>
    <g id="Group_18" data-name="Group 18" transform="translate(17.126)">
      <g id="Group_17" data-name="Group 17" transform="translate(0)">
        <path id="Path_111" data-name="Path 111" d="M51.721,0l-34.6,19.973V59.92l34.6,19.973,5.037-2.908a22.783,22.783,0,0,1-2.735-3.841l-2.3,1.329-2.347-1.355V41.3L21.82,25.393v-2.71l2.347-1.355L51.721,37.237l11.43-6.6L35.6,14.729l4.694-2.71L67.845,27.928l11.43-6.6,2.347,1.355v2.71L54.068,41.3v9.489a22.663,22.663,0,0,1,32.248-7.683V19.973Z" transform="translate(-17.126)" fill="#fff"/>
      </g>
    </g>
  </g>
</svg>
