<svg xmlns="http://www.w3.org/2000/svg" width="80" height="80" viewBox="0 0 80 80">
  <g id="_004-cancel" data-name="004-cancel" transform="translate(0 0)">
    <path id="Path_112" data-name="Path 112" d="M37.022,151.289,1.084,136.158a.781.781,0,0,0-1.084.72v40.453a2.5,2.5,0,0,0,1.572,2.321l34.857,13.943a.781.781,0,0,0,1.071-.725v-40.86A.781.781,0,0,0,37.022,151.289Z" transform="translate(0 -114.831)" fill="#fff"/>
    <path id="Path_113" data-name="Path 113" d="M64.506,32.16,99.243,17.534a.781.781,0,0,0,.027-1.428L65.26.235a2.5,2.5,0,0,0-2.114,0L29.136,16.106a.781.781,0,0,0,.027,1.428L63.9,32.16a.781.781,0,0,0,.606,0Z" transform="translate(-24.203 0)" fill="#fff"/>
    <path id="Path_114" data-name="Path 114" d="M292,154.831a22.446,22.446,0,0,1,16.684,7.422.468.468,0,0,0,.816-.313V136.878a.781.781,0,0,0-1.084-.72l-35.937,15.132a.781.781,0,0,0-.478.72v13.249a.468.468,0,0,0,.866.247A22.506,22.506,0,0,1,292,154.831Z" transform="translate(-229.5 -114.831)" fill="#fff"/>
    <path id="Path_115" data-name="Path 115" d="M305.5,288A17.5,17.5,0,1,0,323,305.5,17.52,17.52,0,0,0,305.5,288Zm5.518,19.482a2.5,2.5,0,1,1-3.535,3.536l-1.982-1.982-1.982,1.982a2.5,2.5,0,0,1-3.535-3.536l1.982-1.982-1.982-1.982a2.5,2.5,0,1,1,3.535-3.536l1.982,1.982,1.982-1.982a2.5,2.5,0,0,1,3.535,3.536l-1.982,1.982Z" transform="translate(-243 -243)" fill="#fff"/>
  </g>
</svg>
