<svg xmlns="http://www.w3.org/2000/svg" xmlns:xlink="http://www.w3.org/1999/xlink" width="75.359" height="80" viewBox="0 0 75.359 80">
  <defs>
    <linearGradient id="linear-gradient" x1="0.5" x2="0.5" y2="1" gradientUnits="objectBoundingBox">
      <stop offset="0" stop-color="#2a57d7"/>
      <stop offset="1" stop-color="#00e4d0"/>
    </linearGradient>
  </defs>
  <g id="_001-admin-with-cogwheels" data-name="001-admin-with-cogwheels" transform="translate(-13.766)">
    <path id="Path_26" data-name="Path 26" d="M235.725,94.4c-.1-1.923-2.068-1.6-3.986-1.6A16.976,16.976,0,0,1,235.725,94.4Z" transform="translate(-181.244 -77.143)" fill="url(#linear-gradient)"/>
    <path id="Path_27" data-name="Path 27" d="M95.661,73.928a7.936,7.936,0,0,0-4.919,14.161A17.183,17.183,0,0,1,102.1,77.248,7.942,7.942,0,0,0,95.661,73.928Z" transform="translate(-61.501 -61.486)" fill="url(#linear-gradient)"/>
    <path id="Path_28" data-name="Path 28" d="M18.9,25.243a16.511,16.511,0,0,0,1.163,2.792l-2.445,2.447a1.685,1.685,0,0,0,0,2.38l4.31,4.311a1.691,1.691,0,0,0,2.382,0l2.442-2.447c.367.194.773.313,1.152.48,0-.028,0-.057,0-.085a25.077,25.077,0,0,1,.638-5.656A10.633,10.633,0,1,1,43.522,15.306a18.543,18.543,0,0,1,6.009.175,16.051,16.051,0,0,0-1.039-2.494l2.445-2.448a1.676,1.676,0,0,0,0-2.379L46.629,3.851a1.678,1.678,0,0,0-2.377,0L41.8,6.3A15.755,15.755,0,0,0,39.007,5.14V1.682A1.679,1.679,0,0,0,37.326,0h-6.1a1.685,1.685,0,0,0-1.683,1.682V5.14A15.924,15.924,0,0,0,26.754,6.3L24.309,3.854a1.683,1.683,0,0,0-2.379,0L17.617,8.161a1.689,1.689,0,0,0,0,2.381l2.445,2.446A16.1,16.1,0,0,0,18.9,15.78H15.449a1.683,1.683,0,0,0-1.683,1.684v6.1a1.683,1.683,0,0,0,1.683,1.683Z" transform="translate(0 0)" fill="url(#linear-gradient)"/>
    <path id="Path_29" data-name="Path 29" d="M294.113,261.067a8.659,8.659,0,1,0-8.728-14.947,31.309,31.309,0,0,1-3.7,8.867A26.038,26.038,0,0,1,294.113,261.067Z" transform="translate(-222.851 -203.598)" fill="url(#linear-gradient)"/>
    <path id="Path_30" data-name="Path 30" d="M330.938,184.495a1.817,1.817,0,0,0-1.815-1.816h-3.729a17.228,17.228,0,0,0-1.256-3.015l2.64-2.64a1.813,1.813,0,0,0,0-2.568l-4.648-4.649a1.811,1.811,0,0,0-2.566,0l-2.646,2.642A16.957,16.957,0,0,0,313.9,171.2v-3.73a1.813,1.813,0,0,0-1.812-1.815h-6.576a1.79,1.79,0,0,0-1.145.438,24.728,24.728,0,0,1,.857,6.548,31.475,31.475,0,0,1-.332,4.488,11.241,11.241,0,0,1,3.906-.734,11.375,11.375,0,0,1,6.151,20.955,25.979,25.979,0,0,1,5.294,8.828,1.862,1.862,0,0,0,.6.116,1.813,1.813,0,0,0,1.285-.532l4.65-4.649a1.826,1.826,0,0,0,0-2.568l-2.646-2.642a17.15,17.15,0,0,0,1.256-3.015h3.729a1.82,1.82,0,0,0,1.818-1.816Z" transform="translate(-241.816 -138.122)" fill="url(#linear-gradient)"/>
    <path id="Path_31" data-name="Path 31" d="M80.32,341.668a21.972,21.972,0,0,0-18.873-14.78c-2.88,3.05-6.447,4.985-10.485,4.985s-7.6-1.935-10.482-4.985A21.973,21.973,0,0,0,21.6,341.67l-1.559,4.588a4.325,4.325,0,0,0,4.094,5.714H77.785a4.322,4.322,0,0,0,4.094-5.714Z" transform="translate(-5.02 -271.971)" fill="url(#linear-gradient)"/>
    <path id="Path_32" data-name="Path 32" d="M120.842,128.508c0,10.291,6.265,21.334,13.988,21.334S148.82,138.8,148.82,128.508C148.82,107.176,120.842,107.134,120.842,128.508Z" transform="translate(-89.105 -93.654)" fill="url(#linear-gradient)"/>
  </g>
</svg>
