<svg xmlns="http://www.w3.org/2000/svg" width="80" height="80" viewBox="0 0 80 80">
  <g id="admit-patient" transform="translate(0)">
    <path id="Path_107" data-name="Path 107" d="M216.741.05c-.083-.007-.153-.05-.24-.05H180.668a10.012,10.012,0,0,0-10,10v3.333a3.333,3.333,0,0,0,6.666,0V10a3.339,3.339,0,0,1,3.334-3.333H196.2l-1.017.34a6.7,6.7,0,0,0-4.513,6.326v50h-10A3.339,3.339,0,0,1,177.334,60V53.333a3.333,3.333,0,1,0-6.666,0V60a10.012,10.012,0,0,0,10,10h10v3.333A6.673,6.673,0,0,0,197.334,80a6.994,6.994,0,0,0,2.123-.33l20.027-6.677A6.7,6.7,0,0,0,224,66.667v-60A6.679,6.679,0,0,0,216.741.05Zm0,0" transform="translate(-144.001)" fill="#fff"/>
    <path id="Path_108" data-name="Path 108" d="M35.69,120.973,22.357,107.64a3.332,3.332,0,0,0-5.69,2.36v10H3.333a3.333,3.333,0,1,0,0,6.667H16.667v10a3.332,3.332,0,0,0,5.69,2.357L35.69,125.686a3.329,3.329,0,0,0,0-4.713Zm0,0" transform="translate(0 -89.997)" fill="#fff"/>
  </g>
</svg>
