<svg xmlns="http://www.w3.org/2000/svg" width="80.001" height="80" viewBox="0 0 80.001 80">
  <g id="discharge-patient" transform="translate(0 -0.004)">
    <path id="Path_109" data-name="Path 109" d="M50,43.337a3.332,3.332,0,0,0-3.333,3.333V60a3.337,3.337,0,0,1-3.334,3.333h-10v-50A6.718,6.718,0,0,0,28.793,7l-.987-.33H43.333A3.337,3.337,0,0,1,46.667,10V20a3.333,3.333,0,0,0,6.666,0V10a10.012,10.012,0,0,0-10-10H7.5a2.618,2.618,0,0,0-.356.073C6.983.064,6.83,0,6.667,0A6.673,6.673,0,0,0,0,6.67v60a6.718,6.718,0,0,0,4.54,6.337L24.6,79.694a6.9,6.9,0,0,0,2.067.31,6.673,6.673,0,0,0,6.666-6.667V70h10a10.012,10.012,0,0,0,10-10V46.67A3.332,3.332,0,0,0,50,43.337Zm0,0" fill="#fff"/>
    <path id="Path_110" data-name="Path 110" d="M313.022,120.976l-13.334-13.333A3.332,3.332,0,0,0,294,110v10H280.666a3.333,3.333,0,1,0,0,6.666H294v10a3.332,3.332,0,0,0,5.69,2.357l13.334-13.334a3.33,3.33,0,0,0,0-4.713Zm0,0" transform="translate(-233.999 -89.996)" fill="#fff"/>
  </g>
</svg>
