<svg xmlns="http://www.w3.org/2000/svg" width="82.857" height="80" viewBox="0 0 82.857 80">
  <g id="_008-plastic-surgery" data-name="008-plastic-surgery" transform="translate(-3 -4)">
    <path id="Path_15" data-name="Path 15" d="M45,20.266V34.172h5.714V28.3A8.552,8.552,0,0,0,45,20.266Z" transform="translate(18 6.971)" fill="#fff"/>
    <path id="Path_16" data-name="Path 16" d="M45,59.143a2.857,2.857,0,0,0,5.714,0V42H45Z" transform="translate(18 16.286)" fill="#fff"/>
    <path id="Path_17" data-name="Path 17" d="M46,32h2.857v2.857H46Z" transform="translate(18.429 12)" fill="#fff"/>
    <path id="Path_18" data-name="Path 18" d="M45,36h5.714v5.714H45Z" transform="translate(18 13.714)" fill="#fff"/>
    <path id="Path_19" data-name="Path 19" d="M39.571,54.286a6.018,6.018,0,0,0-2.191.421,1.427,1.427,0,0,1-1.854-.829L23.073,20.8a1.075,1.075,0,0,0-1.024-.8A1.05,1.05,0,0,0,21,21.05a29.594,29.594,0,0,0,.2,3.437l2.5,21.227h3.283a1.43,1.43,0,0,1,1.384,1.074L32.384,62.5a1.486,1.486,0,0,1,.044.354c0,4.727,3.2,8.571,7.143,8.571s7.143-3.844,7.143-8.571-3.2-8.571-7.143-8.571Zm0,14.286c-2.367,0-4.286-2.559-4.286-5.714s1.919-5.714,4.286-5.714,4.286,2.559,4.286,5.714S41.939,68.571,39.571,68.571Z" transform="translate(7.714 6.857)" fill="#fff"/>
    <path id="Path_20" data-name="Path 20" d="M32.188,24.353a15.876,15.876,0,0,0,.353-3.331,1.021,1.021,0,0,0-2-.287L27.4,31.489,29.478,37Z" transform="translate(10.459 6.857)" fill="#fff"/>
    <path id="Path_21" data-name="Path 21" d="M27.74,40l-1.517,5.2a1.429,1.429,0,0,1-1.89.931,6.005,6.005,0,0,0-2.19-.421C18.2,45.714,15,49.559,15,54.286s3.2,8.571,7.143,8.571,7.143-3.844,7.143-8.571a1.492,1.492,0,0,1,.031-.3l1.233-5.75L28.444,40Zm-5.6,20c-2.367,0-4.286-2.559-4.286-5.714s1.919-5.714,4.286-5.714,4.286,2.559,4.286,5.714S24.51,60,22.143,60Z" transform="translate(5.143 15.429)" fill="#fff"/>
    <path id="Path_22" data-name="Path 22" d="M3,4H85.857V6.857H3Z" fill="#fff"/>
    <path id="Path_23" data-name="Path 23" d="M52.714,16.571V8H47v8.571a2.857,2.857,0,1,0,5.714,0Z" transform="translate(18.857 1.714)" fill="#fff"/>
    <path id="Path_24" data-name="Path 24" d="M18.714,16.571V8H13v8.571a2.857,2.857,0,0,0,5.714,0Z" transform="translate(4.286 1.714)" fill="#fff"/>
    <path id="Path_25" data-name="Path 25" d="M80.143,14H74.429A5.714,5.714,0,0,1,63,14H25.857a5.714,5.714,0,1,1-11.429,0H8.714A5.72,5.72,0,0,0,3,19.714V74a5.72,5.72,0,0,0,5.714,5.714H80.143A5.72,5.72,0,0,0,85.857,74V19.714A5.72,5.72,0,0,0,80.143,14ZM47.286,76.857c-5.46,0-9.911-5.027-10-11.244l0-.014c-.079,6.224-4.533,11.259-10,11.259-5.513,0-10-5.127-10-11.429S21.773,54,27.286,54a8.8,8.8,0,0,1,1.737.176l.9-3.074a1.415,1.415,0,0,1-1.2-1.22L26.077,27.39a32.757,32.757,0,0,1-.22-3.769,3.906,3.906,0,0,1,7.626-1.194l2.7,7.179,2.07-7.1a3.878,3.878,0,0,1,7.6,1.086,18.787,18.787,0,0,1-.417,3.931L41.8,44.514,45.444,54.2a8.622,8.622,0,0,1,1.841-.2c5.513,0,10,5.127,10,11.429S52.8,76.857,47.286,76.857ZM71.571,38.286a1.428,1.428,0,0,1-1.429,1.429v2.857A1.428,1.428,0,0,1,71.571,44V71.143a5.714,5.714,0,0,1-11.429,0V44a1.428,1.428,0,0,1,1.429-1.429V39.714a1.428,1.428,0,0,1-1.429-1.429V21.143a1.429,1.429,0,0,1,1.626-1.414,11.413,11.413,0,0,1,9.8,11.259Z" transform="translate(0 4.286)" fill="#fff"/>
  </g>
</svg>
